<svg xmlns="http://www.w3.org/2000/svg" viewBox="0 0 160.69 222.01"><defs><style>.cls-1{fill:#fff;}</style></defs><g id="Layer_2" data-name="Layer 2"><g id="Layer_5" data-name="Layer 5"><path class="cls-1" d="M160.69,116.05c0-43.94-36-79.49-80.34-79.49a89,89,0,0,0-13.11,1,57.64,57.64,0,0,1,6-2.8C71.61,23,74.89,18.94,78.36,15.57,80,14,81,13.28,81.64,11.06a8.54,8.54,0,0,0-3.16-9.35,8.65,8.65,0,0,0-12,1.65,8.41,8.41,0,0,0,.14,10.43c6.49,7.82,1.15,17.94-4.19,24.74a82.46,82.46,0,0,0-15.74,5.35c-5.59,2.54-4.5,3.75-9.78-.2-6.74-5-12.92-12.91-12.53-20.79.2-3.19,1.35-5.79.32-8.91A9.69,9.69,0,0,0,5.85,16.91a9.57,9.57,0,0,0,7.2,9.22C25,29,26.8,43.81,25.91,54.05a64.61,64.61,0,0,1,9.25-3.75A79.22,79.22,0,0,0,0,116.05c0,36.19,24.49,66.72,58,76.32-2.12-.06-4.24-.25-6.36-.51l-8.17,29.7L64.34,194c10.67,2.1,19.8,2.67,30.6,1l20.57,27-7.84-28.43a70.51,70.51,0,0,1-9.71.83C125.67,188.87,160.69,162.29,160.69,116.05ZM75.79,5.33c4.3,3.18-.58,9.61-4.89,6.36S71.48,2.15,75.79,5.33ZM15.49,21.42c-5.91,0-6-8.9,0-8.9S21.47,21.42,15.49,21.42ZM30.64,74.58a80.12,80.12,0,0,0-9.58,11.76,60.86,60.86,0,0,0-7.26,16.1,76.91,76.91,0,0,0-2.44,15.2,1.06,1.06,0,0,1-2,.39,1.08,1.08,0,0,1-2-.52,82.18,82.18,0,0,1,1.81-15.77A64.3,64.3,0,0,1,16,84.44a89.78,89.78,0,0,1,9.64-13,2.13,2.13,0,0,1,2.57-.55A2.23,2.23,0,0,1,30.64,74.58Zm4.5-5.7a2.1,2.1,0,0,1-2.31-3.46c2.7-2.35,5.14-4.38,8-6.55a3.22,3.22,0,0,1,3-.56c3.24-1,6.18,3.57,3,6-1.35,1-7.52,3.43-9.77,4.58A2,2,0,0,1,35.14,68.88Zm80.61,55.73a38.66,38.66,0,0,1-4.53,5c-14,15.44-50.18,31.69-59.46,22.82A15.14,15.14,0,0,1,49,148.73a19.75,19.75,0,0,1-2.93-4.47C39.25,130.16,40,99.08,47.35,84c3.72-7.43,8.95-10,17.24-8.92C80.6,77,106.47,92.8,115.88,106,120.51,112.58,120.45,118.21,115.75,124.61Z"/></g></g></svg>